<?xml version="1.0" encoding="utf-8"?>
<svg viewBox="110.931 74.7411 242.51 358.67" xmlns="http://www.w3.org/2000/svg">
  <rect x="137.73" y="75.19" width="242.51" height="332.3" style="fill:#455a64" transform="matrix(0.9999999999999999, 0, 0, 0.9999999999999999, -26.799030703291745, 25.921095280663586)"/>
  <polygon points="344.64 359.03 320.36 378.8 152.55 378.8 152.55 85.42 365.27 85.42 365.27 342.3 344.64 359.03" style="fill:#fafafa" transform="matrix(0.9999999999999999, 0, 0, 0.9999999999999999, -26.799030703291745, 25.921095280663586)"/>
  <path d="M344.64,359s.43-.37,1.3-1.08l3.89-3.18,15.39-12.53,0,.06c0-42.2-.08-136-.15-256.88l.23.24-210.87,0h-1.85l.26-.26c0,110.3,0,212.05-.06,293.38l-.2-.21,167.81.12-.06,0,18.24-14.79,4.57-3.69c1-.82,1.53-1.22,1.53-1.22l-1.5,1.25L338.6,364l-18.18,14.86,0,0h0L152.55,379h-.21v-.21c0-81.33,0-183.08-.05-293.38v-.26h2.11l210.87,0h.24v.23c-.07,120.92-.13,214.68-.15,256.88v0l0,0-15.45,12.47L346,358Z" style="fill:#263238" transform="matrix(0.9999999999999999, 0, 0, 0.9999999999999999, -26.799030703291745, 25.921095280663586)"/>
  <path d="M230.21,64.92h58.15a14.15,14.15,0,0,1,14.15,14.15V94.76a0,0,0,0,1,0,0H215.45a0,0,0,0,1,0,0V79.67A14.76,14.76,0,0,1,230.21,64.92Z" style="fill:#7E57C2" transform="matrix(0.9999999999999999, 0, 0, 0.9999999999999999, -26.799030703291745, 25.921095280663586)"/>
  <polygon points="236.78 64.92 233.6 48.82 283.73 48.82 280.94 64.92 236.78 64.92" style="fill:#7E57C2" transform="matrix(0.9999999999999999, 0, 0, 0.9999999999999999, -26.799030703291745, 25.921095280663586)"/>
  <path d="M 332.063 312.696 L 164.534 312.696 L 164.534 145.12 L 332.063 145.12 L 332.063 312.696 Z M 169.21 308.02 L 327.387 308.02 L 327.387 149.796 L 169.21 149.796 L 169.21 308.02 Z" style="fill: rgb(126, 87, 194);" transform="matrix(0.9999999999999999, 0, 0, 0.9999999999999999, -26.799030703291745, 25.921095280663586)"/>
  <polygon points="197.824 232.368 220.08 208.476 257.159 238.12 342.022 155.735 362.362 179.72 255.524 285.109 197.824 232.368" style="fill: rgb(126, 87, 194);" transform="matrix(0.9999999999999999, 0, 0, 0.9999999999999999, -26.799030703291745, 25.921095280663586)"/>
  <polygon points="327.03 330.23 303.71 378.53 320.36 378.53 327.03 330.23" style="fill:#e0e0e0" transform="matrix(0.9999999999999999, 0, 0, 0.9999999999999999, -26.799030703291745, 25.921095280663586)"/>
  <path d="M320.36,378.8l12.86-10.59,31.89-26.11.09.44L350.43,338,327,330.73l.31-.2c-2,14-3.71,26.05-4.92,34.59-1.21,8.31-1.83,12.6-2,13.68a2.1,2.1,0,0,1,0-.22l.09-.66c.08-.63.19-1.51.34-2.63.31-2.35.75-5.72,1.31-10,1.16-8.61,2.78-20.72,4.67-34.87l0-.28.27.08,23.49,7.24,14.76,4.56.46.14-.37.3c-12.91,10.41-24.2,19.51-32.28,26l-9.43,7.57-2.52,2-.64.51Z" style="fill:#263238" transform="matrix(0.9999999999999999, 0, 0, 0.9999999999999999, -26.799030703291745, 25.921095280663586)"/>
  <g style="opacity:0.30000000000000004" transform="matrix(0.9999999999999999, 0, 0, 0.9999999999999999, -26.799030703291745, 25.921095280663586)">
    <polyline points="280.26 48.82 277.5 64.92 280.94 64.92 283.73 48.82 279.34 48.82"/>
  </g>
</svg>